<?xml version="1.0" encoding="UTF-8"?>
<svg id="Layer_1" data-name="Layer 1" xmlns="http://www.w3.org/2000/svg" xmlns:xlink="http://www.w3.org/1999/xlink" viewBox="0 0 612 792">
  <defs>
    <style>
      .cls-1 {
        fill: url(#linear-gradient-15);
      }

      .cls-2 {
        fill: url(#linear-gradient-13);
      }

      .cls-3 {
        fill: url(#linear-gradient-28);
      }

      .cls-4 {
        fill: url(#linear-gradient-53);
      }

      .cls-5 {
        fill: url(#linear-gradient-42);
      }

      .cls-6 {
        fill: url(#linear-gradient-46);
      }

      .cls-7 {
        fill: url(#linear-gradient-2);
      }

      .cls-8 {
        fill: url(#linear-gradient-56);
      }

      .cls-9 {
        fill: url(#linear-gradient-43);
      }

      .cls-10 {
        fill: url(#linear-gradient-25);
      }

      .cls-11 {
        fill: url(#linear-gradient-10);
      }

      .cls-12 {
        fill: url(#linear-gradient-12);
      }

      .cls-13 {
        fill: url(#linear-gradient-40);
      }

      .cls-14 {
        fill: url(#linear-gradient-27);
      }

      .cls-15 {
        fill: url(#linear-gradient-37);
      }

      .cls-16 {
        fill: url(#linear-gradient-55);
      }

      .cls-17 {
        fill: #fff;
      }

      .cls-18 {
        fill: url(#linear-gradient-39);
      }

      .cls-19 {
        fill: url(#linear-gradient-52);
      }

      .cls-20 {
        fill: #051a31;
      }

      .cls-21 {
        fill: url(#linear-gradient-47);
      }

      .cls-22 {
        fill: url(#linear-gradient-26);
      }

      .cls-23 {
        fill: url(#linear-gradient-4);
      }

      .cls-24 {
        fill: url(#linear-gradient-35);
      }

      .cls-25 {
        fill: url(#linear-gradient-30);
      }

      .cls-26 {
        fill: url(#linear-gradient-44);
      }

      .cls-27 {
        fill: url(#linear-gradient-49);
      }

      .cls-28 {
        fill: url(#linear-gradient-3);
      }

      .cls-29 {
        fill: url(#linear-gradient-34);
      }

      .cls-30 {
        fill: url(#linear-gradient-5);
      }

      .cls-31 {
        fill: url(#linear-gradient-38);
      }

      .cls-32 {
        fill: url(#linear-gradient-22);
      }

      .cls-33 {
        fill: url(#linear-gradient-24);
      }

      .cls-34 {
        fill: url(#linear-gradient-54);
      }

      .cls-35 {
        fill: url(#linear-gradient-33);
      }

      .cls-36 {
        fill: url(#linear-gradient-51);
      }

      .cls-37 {
        fill: url(#linear-gradient-8);
      }

      .cls-38 {
        fill: url(#linear-gradient-57);
      }

      .cls-39 {
        fill: url(#linear-gradient-14);
      }

      .cls-40 {
        fill: url(#linear-gradient-29);
      }

      .cls-41 {
        fill: url(#linear-gradient-20);
      }

      .cls-42 {
        fill: url(#linear-gradient-17);
      }

      .cls-43 {
        fill: url(#linear-gradient-50);
      }

      .cls-44 {
        fill: url(#linear-gradient-7);
      }

      .cls-45 {
        fill: url(#linear-gradient-9);
      }

      .cls-46 {
        fill: url(#linear-gradient-11);
      }

      .cls-47 {
        fill: url(#linear-gradient-19);
      }

      .cls-48 {
        fill: url(#linear-gradient-6);
      }

      .cls-49 {
        fill: url(#linear-gradient-36);
      }

      .cls-50 {
        fill: url(#linear-gradient-21);
      }

      .cls-51 {
        fill: url(#linear-gradient-45);
      }

      .cls-52 {
        fill: url(#linear-gradient-48);
      }

      .cls-53 {
        fill: url(#linear-gradient-32);
      }

      .cls-54 {
        fill: url(#linear-gradient-41);
      }

      .cls-55 {
        fill: url(#linear-gradient-16);
      }

      .cls-56 {
        fill: url(#linear-gradient);
      }

      .cls-57 {
        fill: url(#linear-gradient-23);
      }

      .cls-58 {
        fill: url(#linear-gradient-31);
      }

      .cls-59 {
        fill: url(#linear-gradient-18);
      }
    </style>
    <linearGradient id="linear-gradient" x1="140.56" y1="568.58" x2="269.4" y2="568.58" gradientUnits="userSpaceOnUse">
      <stop offset="0" stop-color="#000"/>
      <stop offset=".16" stop-color="#051a31"/>
      <stop offset="1" stop-color="#0e233b"/>
    </linearGradient>
    <linearGradient id="linear-gradient-2" x1="23.58" y1="432.36" x2="150.65" y2="432.36" xlink:href="#linear-gradient"/>
    <linearGradient id="linear-gradient-3" x1="41.57" y1="404.05" x2="135.28" y2="462.09" xlink:href="#linear-gradient"/>
    <linearGradient id="linear-gradient-4" x1="47.9" y1="473.83" x2="143.41" y2="418.52" xlink:href="#linear-gradient"/>
    <linearGradient id="linear-gradient-5" x1="22.69" y1="433.09" x2="151.53" y2="433.09" xlink:href="#linear-gradient"/>
    <linearGradient id="linear-gradient-6" x1="21.32" y1="566.01" x2="148.39" y2="566.01" xlink:href="#linear-gradient"/>
    <linearGradient id="linear-gradient-7" x1="40.06" y1="537.7" x2="133.77" y2="595.74" xlink:href="#linear-gradient"/>
    <linearGradient id="linear-gradient-8" x1="46.39" y1="607.48" x2="141.9" y2="552.18" xlink:href="#linear-gradient"/>
    <linearGradient id="linear-gradient-9" x1="21.19" y1="566.01" x2="150.03" y2="566.01" xlink:href="#linear-gradient"/>
    <linearGradient id="linear-gradient-10" x1="141.45" y1="500.28" x2="268.52" y2="500.28" xlink:href="#linear-gradient"/>
    <linearGradient id="linear-gradient-11" x1="158.68" y1="471.61" x2="252.39" y2="529.64" xlink:href="#linear-gradient"/>
    <linearGradient id="linear-gradient-12" x1="165" y1="541.39" x2="260.52" y2="486.08" xlink:href="#linear-gradient"/>
    <linearGradient id="linear-gradient-13" x1="158.68" y1="608.79" x2="252.39" y2="666.83" xlink:href="#linear-gradient"/>
    <linearGradient id="linear-gradient-14" x1="165" y1="678.57" x2="260.52" y2="623.27" xlink:href="#linear-gradient"/>
    <linearGradient id="linear-gradient-15" x1="-97.44" y1="220.18" x2="29.63" y2="220.18" xlink:href="#linear-gradient"/>
    <linearGradient id="linear-gradient-16" x1="-81.72" y1="191.58" x2="11.99" y2="249.62" xlink:href="#linear-gradient"/>
    <linearGradient id="linear-gradient-17" x1="-75.39" y1="261.36" x2="20.12" y2="206.06" xlink:href="#linear-gradient"/>
    <linearGradient id="linear-gradient-18" x1="-99.08" y1="220.23" x2="29.76" y2="220.23" xlink:href="#linear-gradient"/>
    <linearGradient id="linear-gradient-19" x1="-95.96" y1="82.7" x2="31.11" y2="82.7" xlink:href="#linear-gradient"/>
    <linearGradient id="linear-gradient-20" x1="-80.24" y1="54.1" x2="13.47" y2="112.14" xlink:href="#linear-gradient"/>
    <linearGradient id="linear-gradient-21" x1="-73.91" y1="123.88" x2="21.6" y2="68.57" xlink:href="#linear-gradient"/>
    <linearGradient id="linear-gradient-22" x1="-97.6" y1="82.73" x2="31.24" y2="82.73" xlink:href="#linear-gradient"/>
    <linearGradient id="linear-gradient-23" x1="22.83" y1="150.14" x2="149.9" y2="150.14" xlink:href="#linear-gradient"/>
    <linearGradient id="linear-gradient-24" x1="38.55" y1="121.54" x2="132.26" y2="179.58" xlink:href="#linear-gradient"/>
    <linearGradient id="linear-gradient-25" x1="44.88" y1="191.32" x2="140.39" y2="136.02" xlink:href="#linear-gradient"/>
    <linearGradient id="linear-gradient-26" x1="21.19" y1="150.18" x2="150.03" y2="150.18" xlink:href="#linear-gradient"/>
    <linearGradient id="linear-gradient-27" x1="22.83" y1="292.68" x2="149.9" y2="292.68" xlink:href="#linear-gradient"/>
    <linearGradient id="linear-gradient-28" x1="38.55" y1="264.08" x2="132.26" y2="322.12" xlink:href="#linear-gradient"/>
    <linearGradient id="linear-gradient-29" x1="44.88" y1="333.86" x2="140.39" y2="278.56" xlink:href="#linear-gradient"/>
    <linearGradient id="linear-gradient-30" x1="21.19" y1="292.72" x2="150.03" y2="292.72" xlink:href="#linear-gradient"/>
    <linearGradient id="linear-gradient-31" x1="142.96" y1="220.76" x2="270.03" y2="220.76" xlink:href="#linear-gradient"/>
    <linearGradient id="linear-gradient-32" x1="158.68" y1="192.16" x2="252.39" y2="250.2" xlink:href="#linear-gradient"/>
    <linearGradient id="linear-gradient-33" x1="165.01" y1="261.94" x2="260.52" y2="206.64" xlink:href="#linear-gradient"/>
    <linearGradient id="linear-gradient-34" x1="141.32" y1="220.8" x2="270.16" y2="220.8" xlink:href="#linear-gradient"/>
    <linearGradient id="linear-gradient-35" x1="142.96" y1="82.04" x2="270.03" y2="82.04" xlink:href="#linear-gradient"/>
    <linearGradient id="linear-gradient-36" x1="160.19" y1="53.73" x2="253.9" y2="111.77" xlink:href="#linear-gradient"/>
    <linearGradient id="linear-gradient-37" x1="166.52" y1="123.51" x2="262.03" y2="68.2" xlink:href="#linear-gradient"/>
    <linearGradient id="linear-gradient-38" x1="142.07" y1="82.04" x2="270.91" y2="82.04" xlink:href="#linear-gradient"/>
    <linearGradient id="linear-gradient-39" x1="-96.72" y1="499" x2="30.35" y2="499" xlink:href="#linear-gradient"/>
    <linearGradient id="linear-gradient-40" x1="-79.49" y1="470.32" x2="14.22" y2="528.36" xlink:href="#linear-gradient"/>
    <linearGradient id="linear-gradient-41" x1="-73.19" y1="540.3" x2="22.27" y2="485.03" xlink:href="#linear-gradient"/>
    <linearGradient id="linear-gradient-42" x1="-96.84" y1="499" x2="32" y2="499" xlink:href="#linear-gradient"/>
    <linearGradient id="linear-gradient-43" x1="261.86" y1="152.17" x2="388.93" y2="152.17" xlink:href="#linear-gradient"/>
    <linearGradient id="linear-gradient-44" x1="279.85" y1="123.49" x2="373.55" y2="181.53" xlink:href="#linear-gradient"/>
    <linearGradient id="linear-gradient-45" x1="286.17" y1="193.28" x2="381.69" y2="137.97" xlink:href="#linear-gradient"/>
    <linearGradient id="linear-gradient-46" x1="260.97" y1="151.8" x2="389.81" y2="151.8" xlink:href="#linear-gradient"/>
    <linearGradient id="linear-gradient-47" x1="24.34" y1="33.48" x2="151.41" y2="33.48" xlink:href="#linear-gradient"/>
    <linearGradient id="linear-gradient-48" x1="46.33" y1="50.48" x2="140.04" y2="-7.56" xlink:href="#linear-gradient"/>
    <linearGradient id="linear-gradient-49" x1="40.14" y1="-18.63" x2="135.66" y2="36.67" xlink:href="#linear-gradient"/>
    <linearGradient id="linear-gradient-50" x1="22.69" y1="33.43" x2="151.53" y2="33.43" xlink:href="#linear-gradient"/>
    <linearGradient id="linear-gradient-51" x1="263.37" y1="33.48" x2="390.44" y2="33.48" xlink:href="#linear-gradient"/>
    <linearGradient id="linear-gradient-52" x1="285.36" y1="50.48" x2="379.07" y2="-7.56" xlink:href="#linear-gradient"/>
    <linearGradient id="linear-gradient-53" x1="279.17" y1="-18.63" x2="374.69" y2="36.67" xlink:href="#linear-gradient"/>
    <linearGradient id="linear-gradient-54" x1="261.73" y1="33.43" x2="390.57" y2="33.43" xlink:href="#linear-gradient"/>
    <linearGradient id="linear-gradient-55" x1="280.6" y1="537.33" x2="374.31" y2="595.37" xlink:href="#linear-gradient"/>
    <linearGradient id="linear-gradient-56" x1="286.93" y1="607.11" x2="382.44" y2="551.81" xlink:href="#linear-gradient"/>
    <linearGradient id="linear-gradient-57" x1="262.49" y1="566.39" x2="391.33" y2="566.39" xlink:href="#linear-gradient"/>
  </defs>
  <path class="cls-20" d="M-703.81,0H703.81c.11,0,.19.08.19.19v791.61c0,.11-.08.19-.19.19H-703.81c-.11,0-.19-.08-.19-.19V.19c0-.11.08-.19.19-.19Z"/>
  <g>
    <path class="cls-56" d="M237.43,582.18l31.71,54.87-31.71,54.89-64.91.07-31.7-54.87,31.7-54.89,64.91-.07ZM237.57,445.14l-65.19.08-.03.06-31.79,55.05,31.82,55.09,65.19-.07,31.83-55.11-31.83-55.11ZM237.43,445.37l31.71,54.87-31.71,54.89-64.91.07-31.7-54.87,31.7-54.89,64.91-.07Z"/>
    <polygon class="cls-7" points="118.88 377.37 150.65 432.36 118.88 487.35 55.35 487.35 23.58 432.36 55.35 377.37 118.88 377.37"/>
    <polygon class="cls-28" points="119.64 377.73 151.41 432.72 119.64 487.71 56.1 487.71 24.34 432.72 56.1 377.73 119.64 377.73"/>
    <path class="cls-23" d="M24.36,432.36l-.02.04,31.77,54.99h63.54l31.77-54.99H24.4s-.03-.02-.04-.04Z"/>
    <path class="cls-30" d="M119.7,377.95l-65.17.08-.03.06-31.81,55.05,31.83,55.09,65.17-.07,31.83-55.11-31.83-55.11ZM119.58,378.18l31.7,54.87-31.7,54.89-64.91.07-31.71-54.87,31.71-54.89,64.91-.07Z"/>
    <polygon class="cls-48" points="116.62 511.02 148.39 566.01 116.62 621 53.09 621 21.32 566.01 53.09 511.02 116.62 511.02"/>
    <polygon class="cls-44" points="118.13 511.39 149.9 566.38 118.13 621.37 54.6 621.37 22.83 566.38 54.6 511.39 118.13 511.39"/>
    <path class="cls-37" d="M22.85,566.01l-.02.04,31.77,54.99h63.54l31.77-54.99H22.9s-.03-.02-.04-.04Z"/>
    <path class="cls-45" d="M118.2,510.87l-65.17.08-.03.06-31.81,55.04,31.83,55.11,65.17-.07,31.83-55.11-31.83-55.11ZM118.07,511.09l31.7,54.89-31.7,54.87-64.91.08-31.71-54.89,31.71-54.87,64.91-.08Z"/>
    <polygon class="cls-11" points="236.75 445.29 268.52 500.28 236.75 555.27 173.21 555.27 141.45 500.28 173.21 445.29 236.75 445.29"/>
    <polygon class="cls-46" points="236.75 445.29 268.52 500.28 236.75 555.27 173.21 555.27 141.45 500.28 173.21 445.29 236.75 445.29"/>
    <path class="cls-12" d="M141.47,499.91l-.02.04,31.77,54.99h63.54l31.77-54.99h-127s-.03-.02-.04-.04Z"/>
    <polygon class="cls-2" points="236.75 582.48 268.52 637.47 236.75 692.46 173.21 692.46 141.45 637.47 173.21 582.48 236.75 582.48"/>
    <path class="cls-39" d="M141.47,637.1l-.02.04,31.77,54.99h63.54l31.77-54.99h-127s-.03-.02-.04-.04Z"/>
    <polygon class="cls-1" points="-2.14 165.19 29.63 220.18 -2.14 275.17 -65.67 275.17 -97.44 220.18 -65.67 165.19 -2.14 165.19"/>
    <polygon class="cls-55" points="-3.65 165.27 28.12 220.26 -3.65 275.25 -67.18 275.25 -98.95 220.26 -67.18 165.27 -3.65 165.27"/>
    <path class="cls-42" d="M-98.93,219.89l-.02.04,31.77,54.99H-3.65l31.77-54.99h-127s-.03-.02-.04-.04Z"/>
    <path class="cls-59" d="M-2.07,165.09l-65.17.07-.04.06-31.79,55.05,31.83,55.11,65.17-.08,31.83-55.11L-2.07,165.09ZM-2.2,165.3l31.7,54.87-31.7,54.89-64.93.07-31.7-54.87,31.71-54.87,64.91-.08Z"/>
    <polygon class="cls-47" points="-.66 27.71 31.11 82.7 -.66 137.69 -64.19 137.69 -95.96 82.7 -64.19 27.71 -.66 27.71"/>
    <polygon class="cls-41" points="-2.17 27.78 29.6 82.77 -2.17 137.76 -65.7 137.76 -97.47 82.77 -65.7 27.78 -2.17 27.78"/>
    <path class="cls-50" d="M-97.45,82.41l-.02.04,31.77,54.99H-2.17l31.77-54.99h-127s-.03-.02-.04-.04Z"/>
    <path class="cls-32" d="M-.6,27.59l-65.17.08-.03.06-31.81,55.04,31.83,55.11,65.17-.07,31.83-55.11L-.6,27.59ZM-.72,27.83l31.7,54.87L-.72,137.57l-64.91.08-31.71-54.89,31.71-54.87,64.91-.07Z"/>
    <polygon class="cls-57" points="118.13 95.15 149.9 150.14 118.13 205.13 54.6 205.13 22.83 150.14 54.6 95.15 118.13 95.15"/>
    <polygon class="cls-33" points="116.62 95.23 148.39 150.22 116.62 205.21 53.08 205.21 21.32 150.22 53.08 95.23 116.62 95.23"/>
    <path class="cls-10" d="M21.34,149.85l-.02.04,31.77,54.99h63.54l31.77-54.99H21.39s-.03-.02-.04-.04Z"/>
    <path class="cls-22" d="M118.2,95.03l-65.17.08-.04.06-31.79,55.05,31.83,55.09,65.17-.07,31.83-55.11-31.83-55.11ZM118.07,95.27l31.7,54.87-31.7,54.87-64.93.08-31.7-54.87,31.7-54.89,64.93-.07Z"/>
    <polygon class="cls-14" points="118.13 237.69 149.9 292.68 118.13 347.67 54.6 347.67 22.83 292.68 54.6 237.69 118.13 237.69"/>
    <polygon class="cls-3" points="116.62 237.77 148.39 292.76 116.62 347.75 53.08 347.75 21.32 292.76 53.08 237.77 116.62 237.77"/>
    <path class="cls-40" d="M21.34,292.39l-.02.04,31.77,54.99h63.54l31.77-54.99H21.39s-.03-.02-.04-.04Z"/>
    <path class="cls-25" d="M118.2,237.58l-65.17.08-.04.06-31.79,55.04,31.83,55.11,65.17-.08,31.83-55.09-31.83-55.11ZM118.07,237.8l31.7,54.89-31.7,54.87-64.93.08-31.7-54.89,31.7-54.87,64.93-.08Z"/>
    <polygon class="cls-58" points="238.26 165.77 270.03 220.76 238.26 275.75 174.73 275.75 142.96 220.76 174.73 165.77 238.26 165.77"/>
    <polygon class="cls-53" points="236.75 165.85 268.52 220.84 236.75 275.83 173.21 275.83 141.45 220.84 173.21 165.85 236.75 165.85"/>
    <path class="cls-35" d="M141.47,220.47l-.02.04,31.77,54.99h63.54l31.77-54.99h-127s-.03-.02-.04-.04Z"/>
    <path class="cls-29" d="M238.33,165.66l-65.19.08-.03.06-31.79,55.04,31.82,55.11,65.19-.07,31.83-55.11-31.83-55.11ZM238.19,165.89l31.71,54.87-31.71,54.87-64.91.08-31.71-54.89,31.71-54.87,64.91-.07Z"/>
    <polygon class="cls-24" points="238.26 27.05 270.03 82.04 238.26 137.03 174.73 137.03 142.96 82.04 174.73 27.05 238.26 27.05"/>
    <polygon class="cls-49" points="238.26 27.42 270.03 82.41 238.26 137.4 174.72 137.4 142.96 82.41 174.72 27.42 238.26 27.42"/>
    <path class="cls-15" d="M142.98,82.04l-.02.04,31.77,54.99h63.54l31.77-54.99h-127s-.03-.02-.04-.04Z"/>
    <path class="cls-31" d="M239.08,26.9l-65.17.08-.03.06-31.81,55.05,31.83,55.09,65.17-.07,31.83-55.11-31.83-55.11ZM238.96,27.13l31.7,54.87-31.7,54.87-64.93.08-31.7-54.87,31.71-54.89,64.91-.07Z"/>
    <polygon class="cls-18" points="-1.42 444.01 30.35 499 -1.42 553.99 -64.95 553.99 -96.72 499 -64.95 444.01 -1.42 444.01"/>
    <polygon class="cls-13" points="-1.42 444.01 30.35 499 -1.42 553.99 -64.95 553.99 -96.72 499 -64.95 444.01 -1.42 444.01"/>
    <path class="cls-54" d="M-96.7,499l-.02.04,31.77,54.62H-1.41l31.77-54.62h-127.01s-.03-.02-.04-.04Z"/>
    <path class="cls-5" d="M.16,443.86l-65.17.08-.04.06-31.79,55.04,31.83,55.11,65.17-.07,31.83-55.11L.16,443.86ZM.03,444.09l31.71,54.87L.03,553.84l-64.91.08-31.7-54.89,31.7-54.87,64.91-.07Z"/>
    <polygon class="cls-9" points="357.16 97.18 388.93 152.17 357.16 207.16 293.63 207.16 261.86 152.17 293.63 97.18 357.16 97.18"/>
    <polygon class="cls-26" points="357.92 97.18 389.68 152.17 357.92 207.16 294.38 207.16 262.61 152.17 294.38 97.18 357.92 97.18"/>
    <path class="cls-51" d="M262.64,151.8l-.02.04,31.77,54.99h63.54l31.77-54.99h-127s-.03-.02-.04-.04Z"/>
    <path class="cls-6" d="M357.98,96.66l-65.17.07-.04.06-31.79,55.05,31.83,55.11,65.17-.08,31.83-55.11-31.83-55.1ZM357.84,96.88l31.71,54.87-31.71,54.89-64.91.07-31.7-54.87,31.7-54.89,64.91-.07Z"/>
    <path class="cls-21" d="M56.11,66.75L24.34,11.76,30.96.3h113.69s.06-.05.09-.09l6.67,11.55-31.77,54.99h-63.53Z"/>
    <polygon class="cls-52" points="54.6 66.68 22.83 11.69 29.41 .3 143.32 .3 149.9 11.69 118.13 66.68 54.6 66.68"/>
    <path class="cls-27" d="M22.85,12.06l-.02-.04L29.6.3h113.54l6.77,11.71H22.89s-.03.02-.04.04Z"/>
    <path class="cls-43" d="M144.74,0l-.1.15s-.02.03-.03.04H29.34l-6.64,11.5,31.83,55.09,65.19.08.03-.06,31.79-55.05-6.79-11.76ZM144.71.38l6.56,11.38-31.7,54.87-64.91-.07L22.95,11.69,29.47.41h115.17s.04-.01.07-.03Z"/>
    <path class="cls-36" d="M295.14,66.75l-31.77-54.99,6.62-11.46h113.69s.06-.05.09-.09l6.67,11.55-31.77,54.99h-63.53Z"/>
    <polygon class="cls-19" points="293.63 66.68 261.86 11.69 268.44 .3 382.35 .3 388.93 11.69 357.16 66.68 293.63 66.68"/>
    <path class="cls-4" d="M261.88,12.06l-.02-.04,6.77-11.71h113.54l6.77,11.71h-127.01s-.03.02-.04.04Z"/>
    <path class="cls-34" d="M383.78,0l-.11.15s0,.03-.01.04h-115.28l-6.64,11.5,31.83,55.09,65.17.08.04-.06,31.79-55.05-6.79-11.76ZM383.73.38l6.57,11.38-31.71,54.87-64.91-.07-31.7-54.87,6.52-11.28h115.17s.03-.01.05-.03Z"/>
    <polygon class="cls-16" points="358.67 511.02 390.44 566.01 358.67 621 295.14 621 263.37 566.01 295.14 511.02 358.67 511.02"/>
    <path class="cls-8" d="M263.39,565.64l-.02.04,31.77,54.99h63.54l31.77-54.99h-127s-.03-.02-.04-.04Z"/>
    <path class="cls-38" d="M359.49,511.24l-65.17.08-.03.06-31.81,55.04,31.83,55.11,65.17-.07,31.83-55.11-31.83-55.11ZM359.37,511.46l31.7,54.89-31.7,54.87-64.91.08-31.71-54.89,31.71-54.87,64.91-.08Z"/>
  </g>
  <g>
    <path class="cls-17" d="M382.06,397.08c-9.01-18.88-13.04-43.44-14.72-65.04-6.91,1.27-13.75,2.08-20.3,2.5,13.94,28.26,35.02,62.54,35.02,62.54"/>
    <path class="cls-17" d="M353.17,288.33h0s.02,0,.03-.01h-.03"/>
    <path class="cls-17" d="M353.17,288.33h.03s-.02,0-.03,0h0"/>
    <path class="cls-17" d="M187.42,363.33c-2.14.58-4,.88-5.55.88-2.95,0-5.23-.82-6.81-2.46-1.59-1.64-2.38-3.98-2.38-7.04s.79-5.36,2.38-7c1.59-1.63,3.85-2.45,6.78-2.45,1.88,0,3.74.24,5.58.73v2.93c-2.13-.78-3.89-1.17-5.26-1.17-1.81,0-3.21.61-4.2,1.83-.99,1.22-1.48,2.95-1.48,5.19s.53,3.86,1.58,5.1c1.05,1.23,2.51,1.85,4.36,1.85.41,0,.88-.06,1.43-.18v-5.97h3.56v7.76"/>
    <path class="cls-17" d="M209.07,353.91h.82c2.58,0,3.87-1.1,3.87-3.3,0-1.61-1.15-2.41-3.45-2.41h-1.24v5.71h0ZM205.7,363.77v-18.06h6.4c3.48,0,5.21,1.49,5.21,4.48,0,1.12-.29,2.13-.88,3.04-.59.92-1.4,1.62-2.43,2.11l5.6,8.43h-4.34l-4.25-7.37h-1.95v7.37h-3.37"/>
    <polyline class="cls-17" points="236.33 363.77 236.33 345.71 247.07 345.71 247.07 348.2 239.89 348.2 239.89 353.23 245.8 353.23 245.8 355.72 239.89 355.72 239.89 361.18 247.61 361.18 247.61 363.77 236.33 363.77"/>
    <path class="cls-17" d="M268.2,356.55h5.33l-2.67-7.2-2.66,7.2h0ZM262.93,363.77l6.68-18.06h3.56l6.69,18.06h-3.66l-1.79-4.83h-7.1l-1.79,4.83h-2.59"/>
    <polyline class="cls-17" points="300.82 363.77 300.82 348.2 294.67 348.2 294.67 345.71 310.53 345.71 310.53 348.2 304.38 348.2 304.38 363.77 300.82 363.77"/>
    <path class="cls-17" d="M405.24,354.2h.69c1.21,0,2.16-.3,2.86-.89.7-.59,1.05-1.4,1.05-2.42,0-1.79-1.07-2.69-3.22-2.69h-1.37v6h0ZM401.73,363.77v-18.06h5.97c2.08,0,3.57.37,4.46,1.1.89.74,1.34,1.97,1.34,3.69,0,1.95-.59,3.47-1.78,4.56-1.19,1.09-2.85,1.63-4.99,1.63h-1.48v7.08h-3.51"/>
    <polyline class="cls-17" points="430.53 363.77 430.53 345.71 434.1 345.71 434.1 361.18 441.86 361.18 441.86 363.77 430.53 363.77"/>
    <path class="cls-17" d="M461.96,356.55h5.33l-2.67-7.2-2.67,7.2h0ZM456.69,363.77l6.68-18.06h3.56l6.69,18.06h-3.66l-1.79-4.83h-7.1l-1.79,4.83h-2.59"/>
    <polyline class="cls-17" points="490.32 363.77 490.32 345.71 493.89 345.71 493.89 363.77 490.32 363.77"/>
    <polyline class="cls-17" points="512.44 363.77 512.44 345.71 515.45 345.71 523.62 358.05 523.62 345.71 526.4 345.71 526.4 363.77 523.4 363.77 515.22 351.43 515.22 363.77 512.44 363.77"/>
    <path class="cls-17" d="M543.96,363.62v-3.12c1.84.81,3.41,1.22,4.71,1.22.91,0,1.64-.22,2.16-.65.53-.43.79-1.02.79-1.76,0-.59-.16-1.08-.48-1.48-.32-.4-.94-.88-1.87-1.43l-1.15-.67c-1.54-.91-2.63-1.78-3.26-2.61-.63-.83-.95-1.81-.95-2.92,0-1.49.52-2.68,1.56-3.58,1.04-.9,2.42-1.35,4.14-1.35,1.37,0,2.92.21,4.65.63v2.88c-1.76-.68-3.15-1.03-4.17-1.03-.79,0-1.42.18-1.9.55-.48.37-.71.85-.71,1.45,0,.49.16.93.49,1.3.33.37.95.83,1.87,1.38l1.23.72c1.66.97,2.8,1.87,3.42,2.69s.94,1.82.94,3c0,1.68-.59,2.99-1.78,3.94-1.18.95-2.81,1.42-4.89,1.42-1.38,0-2.98-.2-4.8-.59"/>
    <path class="cls-17" d="M185.46,405.65c-3.86,0-6.84-1.13-8.94-3.4-2.1-2.27-3.15-5.48-3.15-9.64s1.07-7.36,3.21-9.65c2.14-2.29,5.15-3.43,9.04-3.43,2.22,0,4.83.36,7.81,1.07v3.32c-3.39-1.17-6.01-1.76-7.85-1.76-2.69,0-4.77.91-6.24,2.74-1.47,1.83-2.21,4.41-2.21,7.74s.79,5.68,2.36,7.51c1.58,1.83,3.73,2.75,6.45,2.75,2.35,0,4.86-.72,7.54-2.15v3.03c-2.45,1.24-5.12,1.85-8.02,1.85"/>
    <path class="cls-17" d="M213.79,403.01c2.53,0,4.48-.92,5.86-2.75,1.38-1.83,2.07-4.42,2.07-7.76s-.69-5.77-2.08-7.6c-1.39-1.83-3.3-2.74-5.76-2.74s-4.38.92-5.76,2.75c-1.38,1.83-2.07,4.38-2.07,7.64s.68,5.8,2.05,7.67c1.37,1.86,3.26,2.79,5.68,2.79h0ZM213.74,405.65c-3.44,0-6.21-1.2-8.3-3.59-2.09-2.39-3.14-5.56-3.14-9.49s1.05-7.12,3.16-9.49c2.11-2.37,4.92-3.55,8.44-3.55s6.32,1.18,8.43,3.55c2.11,2.36,3.17,5.52,3.17,9.46s-1.06,7.21-3.17,9.57c-2.11,2.36-4.97,3.54-8.58,3.54"/>
    <polyline class="cls-17" points="235.61 405.01 235.61 380.16 240.52 380.16 247.4 399.39 254.46 380.16 258.8 380.16 258.8 405.01 255.53 405.01 255.53 384.8 248.72 403.35 245.3 403.35 238.64 384.75 238.64 405.01 235.61 405.01"/>
    <polyline class="cls-17" points="270.37 405.01 270.37 380.16 275.27 380.16 282.16 399.39 289.21 380.16 293.56 380.16 293.56 405.01 290.29 405.01 290.29 384.8 283.48 403.35 280.06 403.35 273.39 384.75 273.39 405.01 270.37 405.01"/>
    <path class="cls-17" d="M304.93,380.16h3.51v15.69c0,2.5.46,4.32,1.39,5.45.92,1.14,2.4,1.71,4.41,1.71s3.37-.54,4.19-1.6c.82-1.07,1.24-2.88,1.24-5.44v-15.81h3.08v15.76c0,3.39-.7,5.86-2.09,7.41-1.39,1.54-3.61,2.32-6.65,2.32s-5.39-.8-6.86-2.4c-1.48-1.6-2.21-4.08-2.21-7.42v-15.65"/>
    <polyline class="cls-17" points="334.09 405.01 334.09 380.16 337.55 380.16 350.01 399.33 350.01 380.16 353.03 380.16 353.03 405.01 349.59 405.01 337.12 385.84 337.12 405.01 334.09 405.01"/>
    <polyline class="cls-17" points="364.59 405.01 364.59 380.16 368.1 380.16 368.1 405.01 364.59 405.01"/>
    <path class="cls-17" d="M390.32,405.65c-3.86,0-6.84-1.13-8.94-3.4-2.1-2.27-3.15-5.48-3.15-9.64s1.07-7.36,3.21-9.65c2.14-2.29,5.16-3.43,9.04-3.43,2.22,0,4.83.36,7.81,1.07v3.32c-3.39-1.17-6.01-1.76-7.85-1.76-2.69,0-4.77.91-6.24,2.74-1.47,1.83-2.21,4.41-2.21,7.74s.79,5.68,2.36,7.51c1.57,1.83,3.73,2.75,6.45,2.75,2.35,0,4.86-.72,7.54-2.15v3.03c-2.45,1.24-5.12,1.85-8.02,1.85"/>
    <path class="cls-17" d="M421.2,395.49l-4.2-10.7-4.25,10.7h8.45ZM424.94,405.01l-2.7-6.88h-10.52l-2.75,6.88h-3.27l9.89-24.85h3.46l9.69,24.85h-3.8"/>
    <polyline class="cls-17" points="443.4 405.01 443.4 382.8 434.61 382.8 434.61 380.16 455.7 380.16 455.7 382.8 446.92 382.8 446.92 405.01 443.4 405.01"/>
    <polyline class="cls-17" points="464.33 405.01 464.33 380.16 467.84 380.16 467.84 405.01 464.33 405.01"/>
    <path class="cls-17" d="M489.46,403.01c2.53,0,4.48-.92,5.86-2.75,1.38-1.83,2.07-4.42,2.07-7.76s-.69-5.77-2.08-7.6c-1.39-1.83-3.31-2.74-5.75-2.74s-4.38.92-5.76,2.75c-1.38,1.83-2.07,4.38-2.07,7.64s.69,5.8,2.06,7.67c1.37,1.86,3.26,2.79,5.68,2.79h0ZM489.41,405.65c-3.44,0-6.21-1.2-8.3-3.59-2.09-2.39-3.14-5.56-3.14-9.49s1.05-7.12,3.16-9.49c2.11-2.37,4.92-3.55,8.44-3.55s6.31,1.18,8.43,3.55c2.11,2.36,3.17,5.52,3.17,9.46s-1.05,7.21-3.17,9.57c-2.11,2.36-4.97,3.54-8.58,3.54"/>
    <polyline class="cls-17" points="511.29 405.01 511.29 380.16 514.75 380.16 527.2 399.33 527.2 380.16 530.23 380.16 530.23 405.01 526.78 405.01 514.31 385.84 514.31 405.01 511.29 405.01"/>
    <path class="cls-17" d="M546.67,405.65c-1.67,0-3.8-.36-6.4-1.07v-3.51c2.8,1.3,5.1,1.95,6.9,1.95,1.39,0,2.51-.36,3.35-1.09.85-.73,1.27-1.69,1.27-2.88,0-.97-.27-1.8-.83-2.49-.55-.68-1.57-1.45-3.06-2.29l-1.71-.99c-2.12-1.21-3.61-2.35-4.47-3.42-.87-1.07-1.3-2.32-1.3-3.74,0-1.92.69-3.49,2.08-4.73,1.39-1.24,3.15-1.86,5.3-1.86,1.91,0,3.93.32,6.05.98v3.22c-2.62-1.04-4.57-1.56-5.85-1.56-1.22,0-2.22.32-3.02.97-.79.65-1.19,1.47-1.19,2.45,0,.83.29,1.57.87,2.2.58.64,1.65,1.4,3.19,2.29l1.78,1.01c2.15,1.22,3.65,2.38,4.5,3.46.85,1.09,1.28,2.39,1.28,3.92,0,2.16-.8,3.9-2.39,5.21-1.6,1.31-3.71,1.97-6.34,1.97"/>
    <path class="cls-17" d="M400.61,293.79c-5.05,9.01-16.26,20.94-33.83,27.43-.69-14.54-.41-26.82-.13-33.71-7.35,2.19-13.75,5.27-16.76,9.07.11-.72.43-1.53,1.03-2.44,2.57-3.86,8.67-7.02,15.85-9.31,15.4-4.93,35.77-5.88,36.86-1.21.47,2.01-.54,5.74-3.03,10.17h0ZM434.09,258.97c-19.38.05-49.85,12.99-49.85,12.99-34.92,13.43-47.39,23.77-49.08,29.99-.39,1.44-.21,2.66.41,3.65,2.49,3.96,11.93,4.18,19.05-.14,1.15.27,2,.36,2,.36-5.62,5.6-14.74,7.08-19.72,5.12,1.41,4.32,3.52,9.48,6.09,15.09-5.64.22-11.65-.08-18.09-1.07-26.98-4.18-28.95-29.76-21.98-45.61.76-1.73,1.62-3.35,2.58-4.8,7.08-10.82,17.91-18.62,27.92-23.98,13.04-6.99,24.66-9.85,24.66-9.85,0,0-60.59,12.4-74.78,44.44-.52,1.18-.99,2.38-1.38,3.61-1.65,5.2-1.39,11.22-.25,17.39,1.2,6.52,12.26,16.77,23.13,19.99,10.07,2.98,22.54,5.86,35.63,5.62,1.7-.03,3.43-.09,5.18-.18,6.89-.33,14.16-1.09,21.54-2.37,25.78-4.46,52.77-15.24,68.86-36.37,2.42-3.18,4.4-6.23,5.96-9.11,7.95-14.64,4.9-24.79-7.87-24.76"/>
  </g>
</svg>